<svg id="mermaid-svg" width="100%" xmlns="http://www.w3.org/2000/svg" class="flowchart" style="max-width: 2680.375px;" viewBox="0 0 2680.375 1156.426513671875" role="graphics-document document" aria-roledescription="flowchart-v2" xmlns:xlink="http://www.w3.org/1999/xlink"><style xmlns="http://www.w3.org/1999/xhtml">@import url("https://cdnjs.cloudflare.com/ajax/libs/font-awesome/6.7.2/css/all.min.css");</style><style>#mermaid-svg{font-family:"trebuchet ms",verdana,arial,sans-serif;font-size:16px;fill:#333;}@keyframes edge-animation-frame{from{stroke-dashoffset:0;}}@keyframes dash{to{stroke-dashoffset:0;}}#mermaid-svg .edge-animation-slow{stroke-dasharray:9,5!important;stroke-dashoffset:900;animation:dash 50s linear infinite;stroke-linecap:round;}#mermaid-svg .edge-animation-fast{stroke-dasharray:9,5!important;stroke-dashoffset:900;animation:dash 20s linear infinite;stroke-linecap:round;}#mermaid-svg .error-icon{fill:#552222;}#mermaid-svg .error-text{fill:#552222;stroke:#552222;}#mermaid-svg .edge-thickness-normal{stroke-width:1px;}#mermaid-svg .edge-thickness-thick{stroke-width:3.5px;}#mermaid-svg .edge-pattern-solid{stroke-dasharray:0;}#mermaid-svg .edge-thickness-invisible{stroke-width:0;fill:none;}#mermaid-svg .edge-pattern-dashed{stroke-dasharray:3;}#mermaid-svg .edge-pattern-dotted{stroke-dasharray:2;}#mermaid-svg .marker{fill:#333333;stroke:#333333;}#mermaid-svg .marker.cross{stroke:#333333;}#mermaid-svg svg{font-family:"trebuchet ms",verdana,arial,sans-serif;font-size:16px;}#mermaid-svg p{margin:0;}#mermaid-svg .label{font-family:"trebuchet ms",verdana,arial,sans-serif;color:#333;}#mermaid-svg .cluster-label text{fill:#333;}#mermaid-svg .cluster-label span{color:#333;}#mermaid-svg .cluster-label span p{background-color:transparent;}#mermaid-svg .label text,#mermaid-svg span{fill:#333;color:#333;}#mermaid-svg .node rect,#mermaid-svg .node circle,#mermaid-svg .node ellipse,#mermaid-svg .node polygon,#mermaid-svg .node path{fill:#ECECFF;stroke:#9370DB;stroke-width:1px;}#mermaid-svg .rough-node .label text,#mermaid-svg .node .label text,#mermaid-svg .image-shape .label,#mermaid-svg .icon-shape .label{text-anchor:middle;}#mermaid-svg .node .katex path{fill:#000;stroke:#000;stroke-width:1px;}#mermaid-svg .rough-node .label,#mermaid-svg .node .label,#mermaid-svg .image-shape .label,#mermaid-svg .icon-shape .label{text-align:center;}#mermaid-svg .node.clickable{cursor:pointer;}#mermaid-svg .root .anchor path{fill:#333333!important;stroke-width:0;stroke:#333333;}#mermaid-svg .arrowheadPath{fill:#333333;}#mermaid-svg .edgePath .path{stroke:#333333;stroke-width:2.0px;}#mermaid-svg .flowchart-link{stroke:#333333;fill:none;}#mermaid-svg .edgeLabel{background-color:rgba(232,232,232, 0.8);text-align:center;}#mermaid-svg .edgeLabel p{background-color:rgba(232,232,232, 0.8);}#mermaid-svg .edgeLabel rect{opacity:0.5;background-color:rgba(232,232,232, 0.8);fill:rgba(232,232,232, 0.8);}#mermaid-svg .labelBkg{background-color:rgba(232, 232, 232, 0.5);}#mermaid-svg .cluster rect{fill:#ffffde;stroke:#aaaa33;stroke-width:1px;}#mermaid-svg .cluster text{fill:#333;}#mermaid-svg .cluster span{color:#333;}#mermaid-svg div.mermaidTooltip{position:absolute;text-align:center;max-width:200px;padding:2px;font-family:"trebuchet ms",verdana,arial,sans-serif;font-size:12px;background:hsl(80, 100%, 96.2745098039%);border:1px solid #aaaa33;border-radius:2px;pointer-events:none;z-index:100;}#mermaid-svg .flowchartTitleText{text-anchor:middle;font-size:18px;fill:#333;}#mermaid-svg rect.text{fill:none;stroke-width:0;}#mermaid-svg .icon-shape,#mermaid-svg .image-shape{background-color:rgba(232,232,232, 0.8);text-align:center;}#mermaid-svg .icon-shape p,#mermaid-svg .image-shape p{background-color:rgba(232,232,232, 0.8);padding:2px;}#mermaid-svg .icon-shape rect,#mermaid-svg .image-shape rect{opacity:0.5;background-color:rgba(232,232,232, 0.8);fill:rgba(232,232,232, 0.8);}#mermaid-svg .label-icon{display:inline-block;height:1em;overflow:visible;vertical-align:-0.125em;}#mermaid-svg .node .label-icon path{fill:currentColor;stroke:revert;stroke-width:revert;}#mermaid-svg :root{--mermaid-font-family:"trebuchet ms",verdana,arial,sans-serif;}</style><g><marker id="mermaid-svg_flowchart-v2-pointEnd" class="marker flowchart-v2" viewBox="0 0 10 10" refX="5" refY="5" markerUnits="userSpaceOnUse" markerWidth="8" markerHeight="8" orient="auto"><path d="M 0 0 L 10 5 L 0 10 z" class="arrowMarkerPath" style="stroke-width: 1; stroke-dasharray: 1, 0;"/></marker><marker id="mermaid-svg_flowchart-v2-pointStart" class="marker flowchart-v2" viewBox="0 0 10 10" refX="4.5" refY="5" markerUnits="userSpaceOnUse" markerWidth="8" markerHeight="8" orient="auto"><path d="M 0 5 L 10 10 L 10 0 z" class="arrowMarkerPath" style="stroke-width: 1; stroke-dasharray: 1, 0;"/></marker><marker id="mermaid-svg_flowchart-v2-circleEnd" class="marker flowchart-v2" viewBox="0 0 10 10" refX="11" refY="5" markerUnits="userSpaceOnUse" markerWidth="11" markerHeight="11" orient="auto"><circle cx="5" cy="5" r="5" class="arrowMarkerPath" style="stroke-width: 1; stroke-dasharray: 1, 0;"/></marker><marker id="mermaid-svg_flowchart-v2-circleStart" class="marker flowchart-v2" viewBox="0 0 10 10" refX="-1" refY="5" markerUnits="userSpaceOnUse" markerWidth="11" markerHeight="11" orient="auto"><circle cx="5" cy="5" r="5" class="arrowMarkerPath" style="stroke-width: 1; stroke-dasharray: 1, 0;"/></marker><marker id="mermaid-svg_flowchart-v2-crossEnd" class="marker cross flowchart-v2" viewBox="0 0 11 11" refX="12" refY="5.2" markerUnits="userSpaceOnUse" markerWidth="11" markerHeight="11" orient="auto"><path d="M 1,1 l 9,9 M 10,1 l -9,9" class="arrowMarkerPath" style="stroke-width: 2; stroke-dasharray: 1, 0;"/></marker><marker id="mermaid-svg_flowchart-v2-crossStart" class="marker cross flowchart-v2" viewBox="0 0 11 11" refX="-1" refY="5.2" markerUnits="userSpaceOnUse" markerWidth="11" markerHeight="11" orient="auto"><path d="M 1,1 l 9,9 M 10,1 l -9,9" class="arrowMarkerPath" style="stroke-width: 2; stroke-dasharray: 1, 0;"/></marker><g class="root"><g class="clusters"><g class="cluster " id="Shared" data-look="classic"><rect style="" x="603" y="811" width="860" height="160.42647552490234"/><g class="cluster-label " transform="translate(957.8515625, 811)"><foreignObject width="150.296875" height="24"><div xmlns="http://www.w3.org/1999/xhtml" style="display: table-cell; white-space: nowrap; line-height: 1.5; max-width: 200px; text-align: center;"><span class="nodeLabel "><p>Shared Infrastructure</p></span></div></foreignObject></g></g><g class="cluster " id="ATL" data-look="classic"><rect style="" x="253" y="433" width="330" height="538.4264755249023"/><g class="cluster-label " transform="translate(318, 433)"><foreignObject width="200" height="48"><div xmlns="http://www.w3.org/1999/xhtml" style="display: table; white-space: break-spaces; line-height: 1.5; max-width: 200px; text-align: center; width: 200px;"><span class="nodeLabel "><p>ai-tech-lead — Coding Specialist</p></span></div></foreignObject></g></g><g class="cluster " id="Factory" data-look="classic"><rect style="" x="1965.5" y="433" width="706.87109375" height="715.4264755249023"/><g class="cluster-label " transform="translate(2218.935546875, 433)"><foreignObject width="200" height="48"><div xmlns="http://www.w3.org/1999/xhtml" style="display: table; white-space: break-spaces; line-height: 1.5; max-width: 200px; text-align: center; width: 200px;"><span class="nodeLabel "><p>agent-factory — Control Plane</p></span></div></foreignObject></g></g><g class="cluster " id="Army" data-look="classic"><rect style="" x="1003.375" y="304" width="942.125" height="433"/><g class="cluster-label " transform="translate(1377.0703125, 304)"><foreignObject width="194.734375" height="24"><div xmlns="http://www.w3.org/1999/xhtml" style="display: table-cell; white-space: nowrap; line-height: 1.5; max-width: 200px; text-align: center;"><span class="nodeLabel "><p>agent-army — Orchestrator</p></span></div></foreignObject></g></g><g class="cluster " id="You" data-look="classic"><rect style="" x="378" y="8" width="2294.375" height="222"/><g class="cluster-label " transform="translate(1499.609375, 8)"><foreignObject width="51.15625" height="24"><div xmlns="http://www.w3.org/1999/xhtml" style="display: table-cell; white-space: nowrap; line-height: 1.5; max-width: 200px; text-align: center;"><span class="nodeLabel "><p>👤 You</p></span></div></foreignObject></g></g></g><g class="edgePaths"><path d="M817.461,131.417L921.301,147.848C1025.141,164.278,1232.82,197.139,1336.66,219.736C1440.5,242.333,1440.5,254.667,1440.5,267C1440.5,279.333,1440.5,291.667,1440.5,301.333C1440.5,311,1440.5,318,1440.5,321.5L1440.5,325" id="L_Phone_ArmyBot_0" class=" edge-thickness-normal edge-pattern-solid edge-thickness-normal edge-pattern-solid flowchart-link" style=";" data-edge="true" data-et="edge" data-id="L_Phone_ArmyBot_0" data-points="W3sieCI6ODE3LjQ2MDkzNzUsInkiOjEzMS40MTcyNTUwNTA0NDg4fSx7IngiOjE0NDAuNSwieSI6MjMwfSx7IngiOjE0NDAuNSwieSI6MjY3fSx7IngiOjE0NDAuNSwieSI6MzA0fSx7IngiOjE0NDAuNSwieSI6MzI5fV0=" marker-end="url(#mermaid-svg_flowchart-v2-pointEnd)"/><path d="M736.035,146L734.506,160C732.976,174,729.918,202,728.389,222.167C726.859,242.333,726.859,254.667,726.859,267C726.859,279.333,726.859,291.667,726.859,306.5C726.859,321.333,726.859,338.667,726.859,356C726.859,373.333,726.859,390.667,973.867,403.5C1220.874,416.333,1714.888,424.667,1961.895,432.333C2208.902,440,2208.902,447,2208.902,450.5L2208.902,454" id="L_Phone_FactoryBot_0" class=" edge-thickness-normal edge-pattern-solid edge-thickness-normal edge-pattern-solid flowchart-link" style=";" data-edge="true" data-et="edge" data-id="L_Phone_FactoryBot_0" data-points="W3sieCI6NzM2LjAzNTA1MDY3NTY3NTYsInkiOjE0Nn0seyJ4Ijo3MjYuODU5Mzc1LCJ5IjoyMzB9LHsieCI6NzI2Ljg1OTM3NSwieSI6MjY3fSx7IngiOjcyNi44NTkzNzUsInkiOjMwNH0seyJ4Ijo3MjYuODU5Mzc1LCJ5IjozNTZ9LHsieCI6NzI2Ljg1OTM3NSwieSI6NDA4fSx7IngiOjIyMDguOTAyMzQzNzUsInkiOjQzM30seyJ4IjoyMjA4LjkwMjM0Mzc1LCJ5Ijo0NTh9XQ==" marker-end="url(#mermaid-svg_flowchart-v2-pointEnd)"/><path d="M660.907,146L620.423,160C579.938,174,498.969,202,458.485,222.167C418,242.333,418,254.667,418,267C418,279.333,418,291.667,418,306.5C418,321.333,418,338.667,418,356C418,373.333,418,390.667,418,403.5C418,416.333,418,424.667,418,432.333C418,440,418,447,418,450.5L418,454" id="L_Phone_ATLBot_0" class=" edge-thickness-normal edge-pattern-solid edge-thickness-normal edge-pattern-solid flowchart-link" style=";" data-edge="true" data-et="edge" data-id="L_Phone_ATLBot_0" data-points="W3sieCI6NjYwLjkwNzA5NDU5NDU5NDYsInkiOjE0Nn0seyJ4Ijo0MTgsInkiOjIzMH0seyJ4Ijo0MTgsInkiOjI2N30seyJ4Ijo0MTgsInkiOjMwNH0seyJ4Ijo0MTgsInkiOjM1Nn0seyJ4Ijo0MTgsInkiOjQwOH0seyJ4Ijo0MTgsInkiOjQzM30seyJ4Ijo0MTgsInkiOjQ1OH1d" marker-end="url(#mermaid-svg_flowchart-v2-pointEnd)"/><path d="M2539.344,146L2539.344,160C2539.344,174,2539.344,202,2539.344,222.167C2539.344,242.333,2539.344,254.667,2539.344,267C2539.344,279.333,2539.344,291.667,2539.344,306.5C2539.344,321.333,2539.344,338.667,2539.344,356C2539.344,373.333,2539.344,390.667,2539.344,403.5C2539.344,416.333,2539.344,424.667,2539.344,434.333C2539.344,444,2539.344,455,2539.344,460.5L2539.344,466" id="L_Browser_AdminUI_0" class=" edge-thickness-normal edge-pattern-solid edge-thickness-normal edge-pattern-solid flowchart-link" style=";" data-edge="true" data-et="edge" data-id="L_Browser_AdminUI_0" data-points="W3sieCI6MjUzOS4zNDM3NSwieSI6MTQ2fSx7IngiOjI1MzkuMzQzNzUsInkiOjIzMH0seyJ4IjoyNTM5LjM0Mzc1LCJ5IjoyNjd9LHsieCI6MjUzOS4zNDM3NSwieSI6MzA0fSx7IngiOjI1MzkuMzQzNzUsInkiOjM1Nn0seyJ4IjoyNTM5LjM0Mzc1LCJ5Ijo0MDh9LHsieCI6MjUzOS4zNDM3NSwieSI6NDMzfSx7IngiOjI1MzkuMzQzNzUsInkiOjQ3MH1d" marker-end="url(#mermaid-svg_flowchart-v2-pointEnd)"/><path d="M1440.5,383L1440.5,387.167C1440.5,391.333,1440.5,399.667,1440.5,408C1440.5,416.333,1440.5,424.667,1440.5,434.333C1440.5,444,1440.5,455,1440.5,460.5L1440.5,466" id="L_ArmyBot_ArmyOrch_0" class=" edge-thickness-normal edge-pattern-solid edge-thickness-normal edge-pattern-solid flowchart-link" style=";" data-edge="true" data-et="edge" data-id="L_ArmyBot_ArmyOrch_0" data-points="W3sieCI6MTQ0MC41LCJ5IjozODN9LHsieCI6MTQ0MC41LCJ5Ijo0MDh9LHsieCI6MTQ0MC41LCJ5Ijo0MzN9LHsieCI6MTQ0MC41LCJ5Ijo0NzB9XQ==" marker-end="url(#mermaid-svg_flowchart-v2-pointEnd)"/><path d="M1544.818,524L1584.098,534.167C1623.379,544.333,1701.939,564.667,1741.22,582.333C1780.5,600,1780.5,615,1780.5,622.5L1780.5,630" id="L_ArmyOrch_ArmyReg_0" class=" edge-thickness-normal edge-pattern-solid edge-thickness-normal edge-pattern-solid flowchart-link" style=";" data-edge="true" data-et="edge" data-id="L_ArmyOrch_ArmyReg_0" data-points="W3sieCI6MTU0NC44MTgxODE4MTgxODE4LCJ5Ijo1MjR9LHsieCI6MTc4MC41LCJ5Ijo1ODV9LHsieCI6MTc4MC41LCJ5Ijo2MzR9XQ==" marker-end="url(#mermaid-svg_flowchart-v2-pointEnd)"/><path d="M1780.5,712L1780.5,716.167C1780.5,720.333,1780.5,728.667,1826.75,739C1873,749.333,1965.5,761.667,2011.75,774C2058,786.333,2058,798.667,2058,818.202C2058,837.738,2058,864.475,2058,891.213C2058,917.951,2058,944.689,2058,964.224C2058,983.76,2058,996.093,2081.892,1008.81C2105.783,1021.527,2153.566,1034.627,2177.458,1041.177L2201.349,1047.728" id="L_ArmyReg_Registry_0" class=" edge-thickness-normal edge-pattern-solid edge-thickness-normal edge-pattern-solid flowchart-link" style=";" data-edge="true" data-et="edge" data-id="L_ArmyReg_Registry_0" data-points="W3sieCI6MTc4MC41LCJ5Ijo3MTJ9LHsieCI6MTc4MC41LCJ5Ijo3Mzd9LHsieCI6MjA1OCwieSI6Nzc0fSx7IngiOjIwNTgsInkiOjgxMX0seyJ4IjoyMDU4LCJ5Ijo4OTEuMjEzMjM3NzYyNDUxMn0seyJ4IjoyMDU4LCJ5Ijo5NzEuNDI2NDc1NTI0OTAyM30seyJ4IjoyMDU4LCJ5IjoxMDA4LjQyNjQ3NTUyNDkwMjN9LHsieCI6MjIwNS4yMDcwMzEyNSwieSI6MTA0OC43ODUyNDM5MzE4NjM1fV0=" marker-end="url(#mermaid-svg_flowchart-v2-pointEnd)"/><path d="M1508,524L1533.417,534.167C1558.833,544.333,1609.667,564.667,1450.332,587.918C1290.997,611.17,921.493,637.34,736.742,650.425L551.99,663.51" id="L_ArmyOrch_ATLGraph_0" class=" edge-thickness-normal edge-pattern-solid edge-thickness-normal edge-pattern-solid flowchart-link" style=";" data-edge="true" data-et="edge" data-id="L_ArmyOrch_ATLGraph_0" data-points="W3sieCI6MTUwOCwieSI6NTI0fSx7IngiOjE2NjAuNSwieSI6NTg1fSx7IngiOjU0OCwieSI6NjYzLjc5Mjc1NjUzOTIzNTR9XQ==" marker-end="url(#mermaid-svg_flowchart-v2-pointEnd)"/><path d="M1440.5,524L1440.5,534.167C1440.5,544.333,1440.5,564.667,1547.191,587.052C1653.882,609.437,1867.265,633.875,1973.956,646.093L2080.647,658.312" id="L_ArmyOrch_FactoryBrain_0" class=" edge-thickness-normal edge-pattern-solid edge-thickness-normal edge-pattern-solid flowchart-link" style=";" data-edge="true" data-et="edge" data-id="L_ArmyOrch_FactoryBrain_0" data-points="W3sieCI6MTQ0MC41LCJ5Ijo1MjR9LHsieCI6MTQ0MC41LCJ5Ijo1ODV9LHsieCI6MjA4NC42MjEwOTM3NSwieSI6NjU4Ljc2Njg5NjYxNDgzMDl9XQ==" marker-end="url(#mermaid-svg_flowchart-v2-pointEnd)"/><path d="M2208.902,536L2208.902,544.167C2208.902,552.333,2208.902,568.667,2208.902,586.333C2208.902,604,2208.902,623,2208.902,632.5L2208.902,642" id="L_FactoryBot_FactoryBrain_0" class=" edge-thickness-normal edge-pattern-solid edge-thickness-normal edge-pattern-solid flowchart-link" style=";" data-edge="true" data-et="edge" data-id="L_FactoryBot_FactoryBrain_0" data-points="W3sieCI6MjIwOC45MDIzNDM3NSwieSI6NTM2fSx7IngiOjIyMDguOTAyMzQzNzUsInkiOjU4NX0seyJ4IjoyMjA4LjkwMjM0Mzc1LCJ5Ijo2NDZ9XQ==" marker-end="url(#mermaid-svg_flowchart-v2-pointEnd)"/><path d="M2291.249,700L2310.056,706.167C2328.864,712.333,2366.479,724.667,2385.286,737C2404.094,749.333,2404.094,761.667,2404.094,774C2404.094,786.333,2404.094,798.667,2404.094,813.036C2404.094,827.404,2404.094,843.809,2404.094,852.011L2404.094,860.213" id="L_FactoryBrain_Staging_0" class=" edge-thickness-normal edge-pattern-solid edge-thickness-normal edge-pattern-solid flowchart-link" style=";" data-edge="true" data-et="edge" data-id="L_FactoryBrain_Staging_0" data-points="W3sieCI6MjI5MS4yNDg3MTgyNjE3MTg4LCJ5Ijo3MDB9LHsieCI6MjQwNC4wOTM3NSwieSI6NzM3fSx7IngiOjI0MDQuMDkzNzUsInkiOjc3NH0seyJ4IjoyNDA0LjA5Mzc1LCJ5Ijo4MTF9LHsieCI6MjQwNC4wOTM3NSwieSI6ODY0LjIxMzIzNzc2MjQ1MTJ9XQ==" marker-end="url(#mermaid-svg_flowchart-v2-pointEnd)"/><path d="M2203.301,700L2202.022,706.167C2200.742,712.333,2198.184,724.667,2196.904,737C2195.625,749.333,2195.625,761.667,2195.625,774C2195.625,786.333,2195.625,798.667,2195.625,810.893C2195.625,823.119,2195.625,835.239,2195.625,841.298L2195.625,847.358" id="L_FactoryBrain_Approval_0" class=" edge-thickness-normal edge-pattern-solid edge-thickness-normal edge-pattern-solid flowchart-link" style=";" data-edge="true" data-et="edge" data-id="L_FactoryBrain_Approval_0" data-points="W3sieCI6MjIwMy4zMDA5NjQzNTU0Njg4LCJ5Ijo3MDB9LHsieCI6MjE5NS42MjUsInkiOjczN30seyJ4IjoyMTk1LjYyNSwieSI6Nzc0fSx7IngiOjIxOTUuNjI1LCJ5Ijo4MTF9LHsieCI6MjE5NS42MjUsInkiOjg1MS4zNTgwNTUxMTQ3NDYxfV0=" marker-end="url(#mermaid-svg_flowchart-v2-pointEnd)"/><path d="M2404.094,918.213L2404.094,927.082C2404.094,935.951,2404.094,953.689,2404.094,968.724C2404.094,983.76,2404.094,996.093,2398.952,1007.933C2393.81,1019.772,2383.527,1031.117,2378.385,1036.79L2373.243,1042.463" id="L_Staging_Registry_0" class=" edge-thickness-normal edge-pattern-solid edge-thickness-normal edge-pattern-solid flowchart-link" style=";" data-edge="true" data-et="edge" data-id="L_Staging_Registry_0" data-points="W3sieCI6MjQwNC4wOTM3NSwieSI6OTE4LjIxMzIzNzc2MjQ1MTJ9LHsieCI6MjQwNC4wOTM3NSwieSI6OTcxLjQyNjQ3NTUyNDkwMjN9LHsieCI6MjQwNC4wOTM3NSwieSI6MTAwOC40MjY0NzU1MjQ5MDIzfSx7IngiOjIzNzAuNTU2Nzk0ODE5MDc4NywieSI6MTA0NS40MjY0NzU1MjQ5MDIzfV0=" marker-end="url(#mermaid-svg_flowchart-v2-pointEnd)"/><path d="M2539.344,524L2539.344,534.167C2539.344,544.333,2539.344,564.667,2539.344,589.5C2539.344,614.333,2539.344,643.667,2539.344,669C2539.344,694.333,2539.344,715.667,2539.344,732.5C2539.344,749.333,2539.344,761.667,2539.344,774C2539.344,786.333,2539.344,798.667,2539.344,818.202C2539.344,837.738,2539.344,864.475,2539.344,891.213C2539.344,917.951,2539.344,944.689,2539.344,964.224C2539.344,983.76,2539.344,996.093,2523.405,1008.194C2507.466,1020.295,2475.588,1032.163,2459.649,1038.097L2443.71,1044.031" id="L_AdminUI_Registry_0" class=" edge-thickness-normal edge-pattern-solid edge-thickness-normal edge-pattern-solid flowchart-link" style=";" data-edge="true" data-et="edge" data-id="L_AdminUI_Registry_0" data-points="W3sieCI6MjUzOS4zNDM3NSwieSI6NTI0fSx7IngiOjI1MzkuMzQzNzUsInkiOjU4NX0seyJ4IjoyNTM5LjM0Mzc1LCJ5Ijo2NzN9LHsieCI6MjUzOS4zNDM3NSwieSI6NzM3fSx7IngiOjI1MzkuMzQzNzUsInkiOjc3NH0seyJ4IjoyNTM5LjM0Mzc1LCJ5Ijo4MTF9LHsieCI6MjUzOS4zNDM3NSwieSI6ODkxLjIxMzIzNzc2MjQ1MTJ9LHsieCI6MjUzOS4zNDM3NSwieSI6OTcxLjQyNjQ3NTUyNDkwMjN9LHsieCI6MjUzOS4zNDM3NSwieSI6MTAwOC40MjY0NzU1MjQ5MDIzfSx7IngiOjI0MzkuOTYxNDAwMDgyMjM2NywieSI6MTA0NS40MjY0NzU1MjQ5MDIzfV0=" marker-end="url(#mermaid-svg_flowchart-v2-pointEnd)"/><path d="M418,536L418,544.167C418,552.333,418,568.667,418,584.333C418,600,418,615,418,622.5L418,630" id="L_ATLBot_ATLGraph_0" class=" edge-thickness-normal edge-pattern-solid edge-thickness-normal edge-pattern-solid flowchart-link" style=";" data-edge="true" data-et="edge" data-id="L_ATLBot_ATLGraph_0" data-points="W3sieCI6NDE4LCJ5Ijo1MzZ9LHsieCI6NDE4LCJ5Ijo1ODV9LHsieCI6NDE4LCJ5Ijo2MzR9XQ==" marker-end="url(#mermaid-svg_flowchart-v2-pointEnd)"/><path d="M468.273,712L473.645,716.167C479.016,720.333,489.758,728.667,495.129,739C500.5,749.333,500.5,761.667,500.5,774C500.5,786.333,500.5,798.667,522.778,811.514C545.056,824.361,589.612,837.721,611.89,844.402L634.169,851.082" id="L_ATLGraph_CodingBackend_0" class=" edge-thickness-normal edge-pattern-solid edge-thickness-normal edge-pattern-solid flowchart-link" style=";" data-edge="true" data-et="edge" data-id="L_ATLGraph_CodingBackend_0" data-points="W3sieCI6NDY4LjI3MzQzNzUsInkiOjcxMn0seyJ4Ijo1MDAuNSwieSI6NzM3fSx7IngiOjUwMC41LCJ5Ijo3NzR9LHsieCI6NTAwLjUsInkiOjgxMX0seyJ4Ijo2MzgsInkiOjg1Mi4yMzExMDM1MjI3NTUyfV0=" marker-end="url(#mermaid-svg_flowchart-v2-pointEnd)"/><path d="M437.167,712L439.214,716.167C441.262,720.333,445.358,728.667,447.405,739C449.453,749.333,449.453,761.667,449.453,774C449.453,786.333,449.453,798.667,449.453,811.05C449.453,823.433,449.453,835.866,449.453,842.082L449.453,848.299" id="L_ATLGraph_ATLBacklog_0" class=" edge-thickness-normal edge-pattern-solid edge-thickness-normal edge-pattern-solid flowchart-link" style=";" data-edge="true" data-et="edge" data-id="L_ATLGraph_ATLBacklog_0" data-points="W3sieCI6NDM3LjE2Njc0ODA0Njg3NSwieSI6NzEyfSx7IngiOjQ0OS40NTMxMjUsInkiOjczN30seyJ4Ijo0NDkuNDUzMTI1LCJ5Ijo3NzR9LHsieCI6NDQ5LjQ1MzEyNSwieSI6ODExfSx7IngiOjQ0OS40NTMxMjUsInkiOjg1Mi4yOTg2MDMwNTc4NjEzfV0=" marker-end="url(#mermaid-svg_flowchart-v2-pointEnd)"/><path d="M2173.878,702.581L2167.086,708.317C2160.294,714.054,2146.709,725.527,2139.917,737.43C2133.125,749.333,2133.125,761.667,2133.125,774C2133.125,786.333,2133.125,798.667,2016.268,816.368C1899.41,834.07,1665.695,857.139,1548.838,868.674L1431.981,880.209" id="L_FactoryBrain_KnowledgeDB_0" class=" edge-thickness-normal edge-pattern-solid edge-thickness-normal edge-pattern-solid flowchart-link" style=";" data-edge="true" data-et="edge" data-id="L_FactoryBrain_KnowledgeDB_0" data-points="W3sieCI6MjE3Ni45MzM3NzY4NTU0Njg4LCJ5Ijo3MDB9LHsieCI6MjEzMy4xMjUsInkiOjczN30seyJ4IjoyMTMzLjEyNSwieSI6Nzc0fSx7IngiOjIxMzMuMTI1LCJ5Ijo4MTF9LHsieCI6MTQyOCwieSI6ODgwLjYwMjA0MTg3MzI0ODN9XQ==" marker-start="url(#mermaid-svg_flowchart-v2-pointStart)" marker-end="url(#mermaid-svg_flowchart-v2-pointEnd)"/><path d="M1400.456,526.365L1387.13,536.138C1373.804,545.91,1347.152,565.455,1333.826,589.894C1320.5,614.333,1320.5,643.667,1320.5,669C1320.5,694.333,1320.5,715.667,1320.5,732.5C1320.5,749.333,1320.5,761.667,1320.5,774C1320.5,786.333,1320.5,798.667,1320.5,808.333C1320.5,818,1320.5,825,1320.5,828.5L1320.5,832" id="L_ArmyOrch_KnowledgeDB_0" class=" edge-thickness-normal edge-pattern-solid edge-thickness-normal edge-pattern-solid flowchart-link" style=";" data-edge="true" data-et="edge" data-id="L_ArmyOrch_KnowledgeDB_0" data-points="W3sieCI6MTQwMy42ODE4MTgxODE4MTgyLCJ5Ijo1MjR9LHsieCI6MTMyMC41LCJ5Ijo1ODV9LHsieCI6MTMyMC41LCJ5Ijo2NzN9LHsieCI6MTMyMC41LCJ5Ijo3Mzd9LHsieCI6MTMyMC41LCJ5Ijo3NzR9LHsieCI6MTMyMC41LCJ5Ijo4MTF9LHsieCI6MTMyMC41LCJ5Ijo4MzZ9XQ==" marker-start="url(#mermaid-svg_flowchart-v2-pointStart)" marker-end="url(#mermaid-svg_flowchart-v2-pointEnd)"/><path d="M388.318,715.274L385.775,718.895C383.233,722.516,378.148,729.758,375.605,739.546C373.063,749.333,373.063,761.667,373.063,774C373.063,786.333,373.063,798.667,512.388,816.629C651.713,834.591,930.364,858.183,1069.689,869.979L1209.014,881.774" id="L_ATLGraph_KnowledgeDB_0" class=" edge-thickness-normal edge-pattern-solid edge-thickness-normal edge-pattern-solid flowchart-link" style=";" data-edge="true" data-et="edge" data-id="L_ATLGraph_KnowledgeDB_0" data-points="W3sieCI6MzkwLjYxNjIxMDkzNzUsInkiOjcxMn0seyJ4IjozNzMuMDYyNSwieSI6NzM3fSx7IngiOjM3My4wNjI1LCJ5Ijo3NzR9LHsieCI6MzczLjA2MjUsInkiOjgxMX0seyJ4IjoxMjEzLCJ5Ijo4ODIuMTExOTI3MDU5MTQ1Mn1d" marker-start="url(#mermaid-svg_flowchart-v2-pointStart)" marker-end="url(#mermaid-svg_flowchart-v2-pointEnd)"/><path d="M2153.678,700L2141.065,706.167C2128.452,712.333,2103.226,724.667,2090.613,737C2078,749.333,2078,761.667,2078,774C2078,786.333,2078,798.667,1925.5,816.797C1773,834.927,1468,858.853,1315.5,870.817L1163,882.78" id="L_FactoryBrain_CheckpointDB_0" class=" edge-thickness-normal edge-pattern-solid edge-thickness-normal edge-pattern-solid flowchart-link" style=";" data-edge="true" data-et="edge" data-id="L_FactoryBrain_CheckpointDB_0" data-points="W3sieCI6MjE1My42Nzc5MTc0ODA0Njg4LCJ5Ijo3MDB9LHsieCI6MjA3OCwieSI6NzM3fSx7IngiOjIwNzgsInkiOjc3NH0seyJ4IjoyMDc4LCJ5Ijo4MTF9LHsieCI6MTE2MywieSI6ODgyLjc4MDA2MTE3NjE3ODh9XQ=="/><path d="M357.024,712L350.51,716.167C343.995,720.333,330.966,728.667,324.452,739C317.938,749.333,317.938,761.667,317.938,774C317.938,786.333,317.938,798.667,422.948,816.254C527.958,833.841,737.979,856.681,842.99,868.102L948,879.522" id="L_ATLGraph_CheckpointDB_0" class=" edge-thickness-normal edge-pattern-solid edge-thickness-normal edge-pattern-solid flowchart-link" style=";" data-edge="true" data-et="edge" data-id="L_ATLGraph_CheckpointDB_0" data-points="W3sieCI6MzU3LjAyNDQxNDA2MjUsInkiOjcxMn0seyJ4IjozMTcuOTM3NSwieSI6NzM3fSx7IngiOjMxNy45Mzc1LCJ5Ijo3NzR9LHsieCI6MzE3LjkzNzUsInkiOjgxMX0seyJ4Ijo5NDgsInkiOjg3OS41MjIxMjk0NzA2NjF9XQ=="/><path d="M1322.375,524L1277.896,534.167C1233.417,544.333,1144.458,564.667,1099.979,589.5C1055.5,614.333,1055.5,643.667,1055.5,669C1055.5,694.333,1055.5,715.667,1055.5,732.5C1055.5,749.333,1055.5,761.667,1055.5,774C1055.5,786.333,1055.5,798.667,1055.5,809C1055.5,819.333,1055.5,827.667,1055.5,831.833L1055.5,836" id="L_ArmyOrch_CheckpointDB_0" class=" edge-thickness-normal edge-pattern-solid edge-thickness-normal edge-pattern-solid flowchart-link" style=";" data-edge="true" data-et="edge" data-id="L_ArmyOrch_CheckpointDB_0" data-points="W3sieCI6MTMyMi4zNzUsInkiOjUyNH0seyJ4IjoxMDU1LjUsInkiOjU4NX0seyJ4IjoxMDU1LjUsInkiOjY3M30seyJ4IjoxMDU1LjUsInkiOjczN30seyJ4IjoxMDU1LjUsInkiOjc3NH0seyJ4IjoxMDU1LjUsInkiOjgxMX0seyJ4IjoxMDU1LjUsInkiOjgzNn1d"/></g><g class="edgeLabels"><g class="edgeLabel" transform="translate(1440.5, 267)"><g class="label" data-id="L_Phone_ArmyBot_0" transform="translate(-29.796875, -12)"><foreignObject width="59.59375" height="24"><div xmlns="http://www.w3.org/1999/xhtml" class="labelBkg" style="display: table-cell; white-space: nowrap; line-height: 1.5; max-width: 200px; text-align: center;"><span class="edgeLabel "><p>any task</p></span></div></foreignObject></g></g><g class="edgeLabel" transform="translate(726.859375, 356)"><g class="label" data-id="L_Phone_FactoryBot_0" transform="translate(-65.359375, -12)"><foreignObject width="130.71875" height="24"><div xmlns="http://www.w3.org/1999/xhtml" class="labelBkg" style="display: table-cell; white-space: nowrap; line-height: 1.5; max-width: 200px; text-align: center;"><span class="edgeLabel "><p>factory commands</p></span></div></foreignObject></g></g><g class="edgeLabel" transform="translate(418, 356)"><g class="label" data-id="L_Phone_ATLBot_0" transform="translate(-44.46875, -12)"><foreignObject width="88.9375" height="24"><div xmlns="http://www.w3.org/1999/xhtml" class="labelBkg" style="display: table-cell; white-space: nowrap; line-height: 1.5; max-width: 200px; text-align: center;"><span class="edgeLabel "><p>coding tasks</p></span></div></foreignObject></g></g><g class="edgeLabel"><g class="label" data-id="L_Browser_AdminUI_0" transform="translate(0, 0)"><foreignObject width="0" height="0"><div xmlns="http://www.w3.org/1999/xhtml" class="labelBkg" style="display: table-cell; white-space: nowrap; line-height: 1.5; max-width: 200px; text-align: center;"><span class="edgeLabel "></span></div></foreignObject></g></g><g class="edgeLabel"><g class="label" data-id="L_ArmyBot_ArmyOrch_0" transform="translate(0, 0)"><foreignObject width="0" height="0"><div xmlns="http://www.w3.org/1999/xhtml" class="labelBkg" style="display: table-cell; white-space: nowrap; line-height: 1.5; max-width: 200px; text-align: center;"><span class="edgeLabel "></span></div></foreignObject></g></g><g class="edgeLabel"><g class="label" data-id="L_ArmyOrch_ArmyReg_0" transform="translate(0, 0)"><foreignObject width="0" height="0"><div xmlns="http://www.w3.org/1999/xhtml" class="labelBkg" style="display: table-cell; white-space: nowrap; line-height: 1.5; max-width: 200px; text-align: center;"><span class="edgeLabel "></span></div></foreignObject></g></g><g class="edgeLabel"><g class="label" data-id="L_ArmyReg_Registry_0" transform="translate(0, 0)"><foreignObject width="0" height="0"><div xmlns="http://www.w3.org/1999/xhtml" class="labelBkg" style="display: table-cell; white-space: nowrap; line-height: 1.5; max-width: 200px; text-align: center;"><span class="edgeLabel "></span></div></foreignObject></g></g><g class="edgeLabel" transform="translate(1186.16856, 618.5945)"><g class="label" data-id="L_ArmyOrch_ATLGraph_0" transform="translate(-100, -24)"><foreignObject width="200" height="48"><div xmlns="http://www.w3.org/1999/xhtml" class="labelBkg" style="display: table; white-space: break-spaces; line-height: 1.5; max-width: 200px; text-align: center; width: 200px;"><span class="edgeLabel "><p>coding task\nJSON subprocess</p></span></div></foreignObject></g></g><g class="edgeLabel" transform="translate(1440.5, 585)"><g class="label" data-id="L_ArmyOrch_FactoryBrain_0" transform="translate(-100, -24)"><foreignObject width="200" height="48"><div xmlns="http://www.w3.org/1999/xhtml" class="labelBkg" style="display: table; white-space: break-spaces; line-height: 1.5; max-width: 200px; text-align: center; width: 200px;"><span class="edgeLabel "><p>design agent\nJSON subprocess</p></span></div></foreignObject></g></g><g class="edgeLabel"><g class="label" data-id="L_FactoryBot_FactoryBrain_0" transform="translate(0, 0)"><foreignObject width="0" height="0"><div xmlns="http://www.w3.org/1999/xhtml" class="labelBkg" style="display: table-cell; white-space: nowrap; line-height: 1.5; max-width: 200px; text-align: center;"><span class="edgeLabel "></span></div></foreignObject></g></g><g class="edgeLabel"><g class="label" data-id="L_FactoryBrain_Staging_0" transform="translate(0, 0)"><foreignObject width="0" height="0"><div xmlns="http://www.w3.org/1999/xhtml" class="labelBkg" style="display: table-cell; white-space: nowrap; line-height: 1.5; max-width: 200px; text-align: center;"><span class="edgeLabel "></span></div></foreignObject></g></g><g class="edgeLabel"><g class="label" data-id="L_FactoryBrain_Approval_0" transform="translate(0, 0)"><foreignObject width="0" height="0"><div xmlns="http://www.w3.org/1999/xhtml" class="labelBkg" style="display: table-cell; white-space: nowrap; line-height: 1.5; max-width: 200px; text-align: center;"><span class="edgeLabel "></span></div></foreignObject></g></g><g class="edgeLabel" transform="translate(2404.09375, 1008.4264755249023)"><g class="label" data-id="L_Staging_Registry_0" transform="translate(-76.2734375, -12)"><foreignObject width="152.546875" height="24"><div xmlns="http://www.w3.org/1999/xhtml" class="labelBkg" style="display: table-cell; white-space: nowrap; line-height: 1.5; max-width: 200px; text-align: center;"><span class="edgeLabel "><p>approved + promoted</p></span></div></foreignObject></g></g><g class="edgeLabel"><g class="label" data-id="L_AdminUI_Registry_0" transform="translate(0, 0)"><foreignObject width="0" height="0"><div xmlns="http://www.w3.org/1999/xhtml" class="labelBkg" style="display: table-cell; white-space: nowrap; line-height: 1.5; max-width: 200px; text-align: center;"><span class="edgeLabel "></span></div></foreignObject></g></g><g class="edgeLabel"><g class="label" data-id="L_ATLBot_ATLGraph_0" transform="translate(0, 0)"><foreignObject width="0" height="0"><div xmlns="http://www.w3.org/1999/xhtml" class="labelBkg" style="display: table-cell; white-space: nowrap; line-height: 1.5; max-width: 200px; text-align: center;"><span class="edgeLabel "></span></div></foreignObject></g></g><g class="edgeLabel"><g class="label" data-id="L_ATLGraph_CodingBackend_0" transform="translate(0, 0)"><foreignObject width="0" height="0"><div xmlns="http://www.w3.org/1999/xhtml" class="labelBkg" style="display: table-cell; white-space: nowrap; line-height: 1.5; max-width: 200px; text-align: center;"><span class="edgeLabel "></span></div></foreignObject></g></g><g class="edgeLabel"><g class="label" data-id="L_ATLGraph_ATLBacklog_0" transform="translate(0, 0)"><foreignObject width="0" height="0"><div xmlns="http://www.w3.org/1999/xhtml" class="labelBkg" style="display: table-cell; white-space: nowrap; line-height: 1.5; max-width: 200px; text-align: center;"><span class="edgeLabel "></span></div></foreignObject></g></g><g class="edgeLabel" transform="translate(2133.125, 774)"><g class="label" data-id="L_FactoryBrain_KnowledgeDB_0" transform="translate(-35.125, -12)"><foreignObject width="70.25" height="24"><div xmlns="http://www.w3.org/1999/xhtml" class="labelBkg" style="display: table-cell; white-space: nowrap; line-height: 1.5; max-width: 200px; text-align: center;"><span class="edgeLabel "><p>read/write</p></span></div></foreignObject></g></g><g class="edgeLabel" transform="translate(1320.5, 673)"><g class="label" data-id="L_ArmyOrch_KnowledgeDB_0" transform="translate(-35.125, -12)"><foreignObject width="70.25" height="24"><div xmlns="http://www.w3.org/1999/xhtml" class="labelBkg" style="display: table-cell; white-space: nowrap; line-height: 1.5; max-width: 200px; text-align: center;"><span class="edgeLabel "><p>read/write</p></span></div></foreignObject></g></g><g class="edgeLabel" transform="translate(373.0625, 774)"><g class="label" data-id="L_ATLGraph_KnowledgeDB_0" transform="translate(-35.125, -12)"><foreignObject width="70.25" height="24"><div xmlns="http://www.w3.org/1999/xhtml" class="labelBkg" style="display: table-cell; white-space: nowrap; line-height: 1.5; max-width: 200px; text-align: center;"><span class="edgeLabel "><p>read/write</p></span></div></foreignObject></g></g><g class="edgeLabel"><g class="label" data-id="L_FactoryBrain_CheckpointDB_0" transform="translate(0, 0)"><foreignObject width="0" height="0"><div xmlns="http://www.w3.org/1999/xhtml" class="labelBkg" style="display: table-cell; white-space: nowrap; line-height: 1.5; max-width: 200px; text-align: center;"><span class="edgeLabel "></span></div></foreignObject></g></g><g class="edgeLabel"><g class="label" data-id="L_ATLGraph_CheckpointDB_0" transform="translate(0, 0)"><foreignObject width="0" height="0"><div xmlns="http://www.w3.org/1999/xhtml" class="labelBkg" style="display: table-cell; white-space: nowrap; line-height: 1.5; max-width: 200px; text-align: center;"><span class="edgeLabel "></span></div></foreignObject></g></g><g class="edgeLabel"><g class="label" data-id="L_ArmyOrch_CheckpointDB_0" transform="translate(0, 0)"><foreignObject width="0" height="0"><div xmlns="http://www.w3.org/1999/xhtml" class="labelBkg" style="display: table-cell; white-space: nowrap; line-height: 1.5; max-width: 200px; text-align: center;"><span class="edgeLabel "></span></div></foreignObject></g></g></g><g class="nodes"><g class="root" transform="translate(0, 25)"><g class="clusters"><g class="cluster " id="Future" data-look="classic"><rect style="" x="8" y="8" width="335" height="172"/><g class="cluster-label " transform="translate(75.5, 8)"><foreignObject width="200" height="48"><div xmlns="http://www.w3.org/1999/xhtml" style="display: table; white-space: break-spaces; line-height: 1.5; max-width: 200px; text-align: center; width: 200px;"><span class="nodeLabel "><p>Future Agents — not yet built</p></span></div></foreignObject></g></g></g><g class="edgePaths"/><g class="edgeLabels"/><g class="nodes"><g class="node default  " id="flowchart-FutureAgent-14" transform="translate(175.5, 94)"><rect class="basic label-container" style="" x="-130" y="-51" width="260" height="102"/><g class="label" style="" transform="translate(-100, -36)"><rect/><foreignObject width="200" height="72"><div xmlns="http://www.w3.org/1999/xhtml" style="display: table; white-space: break-spaces; line-height: 1.5; max-width: 200px; text-align: center; width: 200px;"><span class="nodeLabel "><p>Next specialist agent\ndesigned by Factory Brain</p></span></div></foreignObject></g></g></g></g><g class="node default  " id="flowchart-Phone-0" transform="translate(738.984375, 119)"><rect class="basic label-container" style="" x="-78.4765625" y="-27" width="156.953125" height="54"/><g class="label" style="" transform="translate(-48.4765625, -12)"><rect/><foreignObject width="96.953125" height="24"><div xmlns="http://www.w3.org/1999/xhtml" style="display: table-cell; white-space: nowrap; line-height: 1.5; max-width: 200px; text-align: center;"><span class="nodeLabel "><p>Telegram app</p></span></div></foreignObject></g></g><g class="node default  " id="flowchart-Browser-1" transform="translate(2539.34375, 119)"><rect class="basic label-container" style="" x="-98.03125" y="-27" width="196.0625" height="54"/><g class="label" style="" transform="translate(-68.03125, -12)"><rect/><foreignObject width="136.0625" height="24"><div xmlns="http://www.w3.org/1999/xhtml" style="display: table-cell; white-space: nowrap; line-height: 1.5; max-width: 200px; text-align: center;"><span class="nodeLabel "><p>Browser / VS Code</p></span></div></foreignObject></g></g><g class="node default  " id="flowchart-ArmyBot-2" transform="translate(1440.5, 356)"><rect class="basic label-container" style="" x="-97.875" y="-27" width="195.75" height="54"/><g class="label" style="" transform="translate(-67.875, -12)"><rect/><foreignObject width="135.75" height="24"><div xmlns="http://www.w3.org/1999/xhtml" style="display: table-cell; white-space: nowrap; line-height: 1.5; max-width: 200px; text-align: center;"><span class="nodeLabel "><p>Army Telegram Bot</p></span></div></foreignObject></g></g><g class="node default  " id="flowchart-ArmyOrch-3" transform="translate(1440.5, 497)"><rect class="basic label-container" style="" x="-150.0703125" y="-27" width="300.140625" height="54"/><g class="label" style="" transform="translate(-120.0703125, -12)"><rect/><foreignObject width="240.140625" height="24"><div xmlns="http://www.w3.org/1999/xhtml" style="display: table; white-space: break-spaces; line-height: 1.5; max-width: 200px; text-align: center; width: 200px;"><span class="nodeLabel "><p>Orchestrator\ncreate_react_agent</p></span></div></foreignObject></g></g><g class="node default  " id="flowchart-ArmyReg-4" transform="translate(1780.5, 673)"><rect class="basic label-container" style="" x="-130" y="-39" width="260" height="78"/><g class="label" style="" transform="translate(-100, -24)"><rect/><foreignObject width="200" height="48"><div xmlns="http://www.w3.org/1999/xhtml" style="display: table; white-space: break-spaces; line-height: 1.5; max-width: 200px; text-align: center; width: 200px;"><span class="nodeLabel "><p>Agent Registry\nreads config/agents/</p></span></div></foreignObject></g></g><g class="node default  " id="flowchart-FactoryBot-5" transform="translate(2208.90234375, 497)"><rect class="basic label-container" style="" x="-130" y="-39" width="260" height="78"/><g class="label" style="" transform="translate(-100, -24)"><rect/><foreignObject width="200" height="48"><div xmlns="http://www.w3.org/1999/xhtml" style="display: table; white-space: break-spaces; line-height: 1.5; max-width: 200px; text-align: center; width: 200px;"><span class="nodeLabel "><p>Factory Brain Bot\nTelegram</p></span></div></foreignObject></g></g><g class="node default  " id="flowchart-FactoryBrain-6" transform="translate(2208.90234375, 673)"><rect class="basic label-container" style="" x="-124.28125" y="-27" width="248.5625" height="54"/><g class="label" style="" transform="translate(-94.28125, -12)"><rect/><foreignObject width="188.5625" height="24"><div xmlns="http://www.w3.org/1999/xhtml" style="display: table-cell; white-space: nowrap; line-height: 1.5; max-width: 200px; text-align: center;"><span class="nodeLabel "><p>Factory Brain\ndeep agent</p></span></div></foreignObject></g></g><g class="node default  " id="flowchart-AdminUI-7" transform="translate(2539.34375, 497)"><rect class="basic label-container" style="" x="-98.0234375" y="-27" width="196.046875" height="54"/><g class="label" style="" transform="translate(-68.0234375, -12)"><rect/><foreignObject width="136.046875" height="24"><div xmlns="http://www.w3.org/1999/xhtml" style="display: table-cell; white-space: nowrap; line-height: 1.5; max-width: 200px; text-align: center;"><span class="nodeLabel "><p>Admin UI\nFastAPI</p></span></div></foreignObject></g></g><g class="node default  " id="flowchart-Staging-8" transform="translate(2404.09375, 891.2132377624512)"><rect class="basic label-container" style="" x="-84.265625" y="-27" width="168.53125" height="54"/><g class="label" style="" transform="translate(-54.265625, -12)"><rect/><foreignObject width="108.53125" height="24"><div xmlns="http://www.w3.org/1999/xhtml" style="display: table-cell; white-space: nowrap; line-height: 1.5; max-width: 200px; text-align: center;"><span class="nodeLabel "><p>staging/agents/</p></span></div></foreignObject></g></g><g class="node default  " id="flowchart-Registry-9" transform="translate(2335.20703125, 1084.4264755249023)"><rect class="basic label-container" style="fill:#dbeafe !important;stroke:#3b82f6 !important" x="-130" y="-39" width="260" height="78"/><g class="label" style="" transform="translate(-100, -24)"><rect/><foreignObject width="200" height="48"><div xmlns="http://www.w3.org/1999/xhtml" style="display: table; white-space: break-spaces; line-height: 1.5; max-width: 200px; text-align: center; width: 200px;"><span class="nodeLabel "><p>config/agents/\nenabled registry</p></span></div></foreignObject></g></g><g class="node default  " id="flowchart-Approval-10" transform="translate(2195.625, 891.2132377624512)"><path d="M0,13.570122299691391 a74.203125,13.570122299691391 0,0,0 148.40625,0 a74.203125,13.570122299691391 0,0,0 -148.40625,0 l0,52.57012229969139 a74.203125,13.570122299691391 0,0,0 148.40625,0 l0,-52.57012229969139" class="basic label-container" style="fill:#fce8e8 !important;stroke:#cc4444 !important" label-offset-y="13.570122299691391" transform="translate(-74.203125, -39.85518344953709)"/><g class="label" style="" transform="translate(-66.703125, -2)"><rect/><foreignObject width="133.40625" height="24"><div xmlns="http://www.w3.org/1999/xhtml" style="display: table-cell; white-space: nowrap; line-height: 1.5; max-width: 200px; text-align: center;"><span class="nodeLabel "><p>Approvals\nSQLite</p></span></div></foreignObject></g></g><g class="node default  " id="flowchart-ATLBot-11" transform="translate(418, 497)"><rect class="basic label-container" style="" x="-130" y="-39" width="260" height="78"/><g class="label" style="" transform="translate(-100, -24)"><rect/><foreignObject width="200" height="48"><div xmlns="http://www.w3.org/1999/xhtml" style="display: table; white-space: break-spaces; line-height: 1.5; max-width: 200px; text-align: center; width: 200px;"><span class="nodeLabel "><p>AI Tech Lead Bot\nTelegram</p></span></div></foreignObject></g></g><g class="node default  " id="flowchart-ATLGraph-12" transform="translate(418, 673)"><rect class="basic label-container" style="" x="-130" y="-39" width="260" height="78"/><g class="label" style="" transform="translate(-100, -24)"><rect/><foreignObject width="200" height="48"><div xmlns="http://www.w3.org/1999/xhtml" style="display: table; white-space: break-spaces; line-height: 1.5; max-width: 200px; text-align: center; width: 200px;"><span class="nodeLabel "><p>Coding Workflow\nLangGraph</p></span></div></foreignObject></g></g><g class="node default  " id="flowchart-ATLBacklog-13" transform="translate(449.453125, 891.2132377624512)"><path d="M0,12.943091391367254 a67.09375,12.943091391367254 0,0,0 134.1875,0 a67.09375,12.943091391367254 0,0,0 -134.1875,0 l0,51.943091391367254 a67.09375,12.943091391367254 0,0,0 134.1875,0 l0,-51.943091391367254" class="basic label-container" style="" label-offset-y="12.943091391367254" transform="translate(-67.09375, -38.91463708705088)"/><g class="label" style="" transform="translate(-59.59375, -2)"><rect/><foreignObject width="119.1875" height="24"><div xmlns="http://www.w3.org/1999/xhtml" style="display: table-cell; white-space: nowrap; line-height: 1.5; max-width: 200px; text-align: center;"><span class="nodeLabel "><p>Backlog\nSQLite</p></span></div></foreignObject></g></g><g class="node default  " id="flowchart-KnowledgeDB-15" transform="translate(1320.5, 891.2132377624512)"><path d="M0,15.808823529411764 a107.5,15.808823529411764 0,0,0 215,0 a107.5,15.808823529411764 0,0,0 -215,0 l0,78.80882352941177 a107.5,15.808823529411764 0,0,0 215,0 l0,-78.80882352941177" class="basic label-container" style="fill:#e8f4e8 !important;stroke:#5a9e5a !important" label-offset-y="15.808823529411764" transform="translate(-107.5, -55.21323529411765)"/><g class="label" style="" transform="translate(-100, -14)"><rect/><foreignObject width="200" height="48"><div xmlns="http://www.w3.org/1999/xhtml" style="display: table; white-space: break-spaces; line-height: 1.5; max-width: 200px; text-align: center; width: 200px;"><span class="nodeLabel "><p>Knowledge Store\nSQLite — shared</p></span></div></foreignObject></g></g><g class="node default  " id="flowchart-CheckpointDB-16" transform="translate(1055.5, 891.2132377624512)"><path d="M0,15.808823529411764 a107.5,15.808823529411764 0,0,0 215,0 a107.5,15.808823529411764 0,0,0 -215,0 l0,78.80882352941177 a107.5,15.808823529411764 0,0,0 215,0 l0,-78.80882352941177" class="basic label-container" style="fill:#fff3e0 !important;stroke:#e6a817 !important" label-offset-y="15.808823529411764" transform="translate(-107.5, -55.21323529411765)"/><g class="label" style="" transform="translate(-100, -14)"><rect/><foreignObject width="200" height="48"><div xmlns="http://www.w3.org/1999/xhtml" style="display: table; white-space: break-spaces; line-height: 1.5; max-width: 200px; text-align: center; width: 200px;"><span class="nodeLabel "><p>Checkpoints\nper-project SQLite</p></span></div></foreignObject></g></g><g class="node default  " id="flowchart-CodingBackend-17" transform="translate(768, 891.2132377624512)"><rect class="basic label-container" style="fill:#f3e8ff !important;stroke:#7c3aed !important" x="-130" y="-39" width="260" height="78"/><g class="label" style="" transform="translate(-100, -24)"><rect/><foreignObject width="200" height="48"><div xmlns="http://www.w3.org/1999/xhtml" style="display: table; white-space: break-spaces; line-height: 1.5; max-width: 200px; text-align: center; width: 200px;"><span class="nodeLabel "><p>Coding Backend\nCodex / Claude Code</p></span></div></foreignObject></g></g></g></g></g></svg>